<?xml version="1.0" standalone="no"?>
<!DOCTYPE svg PUBLIC "-//W3C//DTD SVG 20010904//EN"
 "http://www.w3.org/TR/2001/REC-SVG-20010904/DTD/svg10.dtd">
<svg version="1.0" xmlns="http://www.w3.org/2000/svg"
 width="436.000000pt" height="436.000000pt" viewBox="0 0 436.000000 436.000000"
 preserveAspectRatio="xMidYMid meet">
<metadata>
Created by potrace 1.11, written by Peter Selinger 2001-2013
</metadata>
<g transform="translate(0.000000,436.000000) scale(0.100000,-0.100000)"
fill="#000000" stroke="none">
<path d="M1999 3965 c-3 -2 -28 -7 -57 -10 -90 -9 -162 -20 -202 -30 -6 -2
-11 -4 -175 -66 -130 -50 -310 -144 -336 -175 -9 -11 2 -8 31 9 137 80 343
173 361 161 5 -3 9 -1 9 3 0 5 14 14 30 20 17 6 30 8 30 4 0 -7 -133 -71 -149
-71 -10 0 -69 -26 -166 -72 -22 -10 -58 -30 -80 -43 -22 -13 -48 -29 -57 -35
-10 -6 -18 -8 -18 -5 0 5 -28 -17 -94 -76 -23 -20 -54 -47 -70 -60 -16 -13
-40 -34 -54 -47 -29 -26 -38 -23 -22 8 6 12 10 24 7 26 -7 8 -37 -8 -37 -20 0
-6 -11 -11 -23 -11 -19 0 -23 4 -19 20 3 11 12 28 20 38 8 9 12 20 9 24 -4 3
-15 -4 -26 -15 -10 -12 -27 -22 -37 -22 -16 0 -14 5 11 25 17 13 25 24 18 25
-6 0 -15 -5 -19 -12 -5 -8 -10 -6 -19 5 -10 13 -17 11 -65 -19 -62 -38 -72
-40 -90 -19 -10 12 -14 12 -26 0 -8 -7 -14 -23 -14 -34 0 -11 -7 -24 -16 -29
-9 -5 -15 -12 -15 -15 3 -21 -1 -27 -14 -27 -8 0 -15 -4 -15 -10 0 -5 -8 -10
-19 -10 -11 0 -21 -9 -24 -22 -5 -17 -9 -19 -20 -10 -11 9 -18 8 -31 -7 -11
-12 -14 -21 -7 -26 16 -9 13 -25 -4 -25 -8 0 -15 -7 -15 -15 0 -8 -6 -15 -13
-15 -7 0 -20 -8 -28 -17 -9 -10 -25 -24 -35 -30 -16 -11 -16 -13 -2 -10 29 4
24 -16 -6 -24 -15 -4 -36 -15 -45 -23 -10 -9 -20 -14 -23 -11 -3 3 -12 -3 -21
-13 -15 -16 -15 -20 -1 -40 19 -27 37 -29 29 -2 -4 11 -2 20 4 20 6 0 11 -5
11 -10 0 -6 10 -21 22 -33 21 -21 52 -77 48 -86 -1 -2 3 -7 10 -11 7 -5 5 -14
-9 -31 -12 -14 -20 -18 -21 -11 0 7 -7 21 -16 29 -24 24 -38 -4 -18 -34 8 -13
12 -24 9 -24 -3 -1 -9 -3 -15 -4 -5 -1 -17 -3 -25 -4 -11 -1 -13 -9 -8 -33 6
-30 5 -32 -10 -19 -9 7 -17 21 -17 30 -1 14 -2 13 -11 -2 -6 -10 -8 -24 -6
-32 3 -7 -1 -21 -8 -32 -9 -11 -14 -13 -15 -5 0 7 -5 10 -10 7 -6 -3 -11 3
-11 14 -1 12 -3 26 -4 31 -1 6 -3 15 -4 22 -3 27 -16 -7 -16 -43 0 -21 -4 -39
-10 -38 -5 0 -9 11 -7 25 l4 26 -22 -22 c-16 -16 -23 -38 -27 -79 -6 -73 -10
-84 -28 -77 -26 9 -37 -28 -15 -51 25 -28 51 -106 38 -114 -6 -4 -8 -19 -4
-34 5 -18 3 -31 -4 -35 -18 -11 -2 -50 17 -43 13 5 15 2 11 -15 -4 -12 -3 -22
0 -22 4 0 7 -25 7 -55 -1 -30 3 -55 7 -55 4 0 8 5 8 10 0 6 4 10 10 10 6 0 6
-9 0 -24 -5 -13 -9 -33 -9 -43 0 -10 -2 -34 -5 -55 -3 -29 0 -37 15 -41 11 -3
19 -1 19 3 0 5 9 7 21 5 17 -3 19 -2 9 10 -7 8 -16 12 -21 9 -5 -3 -9 -1 -9 5
0 12 15 22 23 15 3 -3 39 -7 79 -9 40 -1 75 -4 78 -5 3 -1 16 -1 30 -1 24 2
25 0 25 -64 0 -36 2 -65 5 -65 3 0 5 -12 6 -27 1 -46 31 -182 43 -198 5 -5 12
-21 16 -35 4 -14 13 -38 20 -55 52 -124 80 -209 65 -200 -4 2 -19 -4 -33 -15
-21 -16 -25 -28 -23 -55 2 -19 9 -41 16 -50 10 -12 8 -16 -13 -24 -37 -14 -41
-28 -13 -52 13 -12 22 -27 20 -34 -3 -7 0 -16 5 -20 6 -3 8 -11 5 -17 -21 -34
-8 -182 23 -258 3 -8 5 -21 4 -28 -1 -7 5 -15 13 -18 8 -3 13 -11 11 -17 -8
-27 -13 -104 -7 -113 6 -8 23 -10 63 -5 5 0 7 6 4 12 -4 6 -14 8 -22 5 -9 -4
-13 -1 -10 6 4 14 96 16 174 5 25 -4 45 -2 49 4 3 6 17 8 30 5 14 -4 24 -2 24
4 0 16 27 12 34 -6 9 -24 7 -36 -6 -28 -7 4 -8 3 -4 -5 4 -6 12 -9 17 -5 13 8
72 -21 103 -49 40 -36 56 -48 56 -41 0 4 10 -2 23 -14 12 -11 34 -24 49 -27
15 -4 38 -17 52 -30 14 -13 28 -20 32 -16 4 3 5 -1 1 -10 -4 -12 5 -20 36 -30
23 -7 57 -22 75 -32 17 -10 32 -15 32 -11 0 4 6 0 13 -10 7 -9 17 -16 23 -14
11 3 85 -32 95 -46 4 -5 14 -6 23 -3 9 4 16 3 16 -2 0 -9 31 -22 60 -27 8 -1
18 -3 23 -4 16 -5 24 -7 72 -15 28 -4 66 -14 86 -22 19 -7 53 -15 75 -17 22
-1 46 -6 52 -10 8 -4 12 0 13 11 0 11 3 13 6 5 4 -10 8 -10 19 -1 11 9 14 8
14 -3 0 -8 6 -15 13 -16 127 -10 149 -10 153 3 3 8 12 11 20 8 8 -3 11 -9 8
-14 -7 -11 -1 -11 30 1 19 7 24 6 20 -4 -6 -15 13 -17 74 -10 33 4 42 9 38 20
-4 11 1 14 17 13 31 -3 87 12 87 23 0 5 4 7 9 3 5 -3 12 -1 16 5 3 5 11 10 16
10 6 0 7 -5 4 -10 -3 -5 3 -10 14 -10 11 0 23 4 26 10 3 5 17 10 30 10 13 0
27 5 30 10 4 6 10 8 15 5 5 -3 11 -1 14 4 3 5 24 8 45 7 22 0 39 3 38 7 -1 5
8 13 20 17 18 7 21 6 16 -7 -4 -11 -2 -14 8 -11 8 3 13 11 11 18 -2 8 3 10 15
6 9 -4 14 -4 10 0 -11 11 13 33 29 27 8 -3 14 1 14 11 0 9 5 16 10 16 6 0 10
-4 10 -10 0 -5 7 -7 15 -4 8 4 13 10 10 15 -3 4 5 14 17 21 34 18 50 19 44 2
-3 -9 -1 -12 4 -9 6 3 10 12 10 20 0 7 14 18 31 24 17 6 48 24 69 41 21 17 42
29 47 28 13 -4 73 23 73 33 0 5 7 9 15 9 9 0 19 8 22 18 9 23 29 42 44 42 8 0
9 4 1 13 -9 10 -1 20 33 42 48 30 71 52 63 61 -5 5 -63 -23 -84 -41 -57 -49
-62 -52 -77 -44 -10 6 -18 5 -22 -1 -3 -5 -11 -10 -18 -10 -6 0 -1 7 11 16 12
8 27 12 34 8 7 -4 8 -3 4 5 -14 22 89 95 120 85 14 -4 16 -3 5 4 -7 5 -9 12
-4 15 12 8 28 -4 36 -26 4 -11 12 -15 19 -11 7 4 26 9 42 11 17 2 47 12 68 23
26 13 35 15 32 6 -3 -8 11 -27 33 -45 33 -27 39 -29 52 -16 13 13 13 17 -7 35
-11 11 -27 20 -34 20 -9 0 -9 3 0 12 9 9 17 9 34 1 25 -12 78 -23 78 -16 0 2
-4 12 -9 22 -9 15 2 53 11 41 21 -28 42 -67 39 -75 -1 -5 7 -1 19 10 11 10 19
24 16 31 -6 16 14 34 37 34 14 0 17 -5 13 -16 -5 -13 -2 -15 14 -11 15 4 20 0
21 -16 1 -20 3 -35 7 -75 1 -7 7 -10 13 -7 6 4 8 13 5 21 -3 8 -1 14 5 14 6 0
7 5 2 13 -12 19 -10 31 10 46 16 12 20 12 28 0 12 -19 11 -29 -1 -29 -5 0 -10
-7 -10 -15 0 -20 19 -19 27 0 6 17 43 17 55 1 4 -6 10 3 14 20 4 16 13 38 20
49 8 11 14 27 14 37 0 10 5 18 10 18 6 0 10 6 10 14 0 8 5 18 12 22 7 5 9 2 5
-9 -8 -22 61 -46 74 -26 6 10 -1 24 -26 47 -19 18 -34 36 -33 40 1 4 -3 17
-10 29 -8 14 -9 29 -3 45 6 13 10 19 11 13 0 -5 5 -3 10 5 13 20 13 33 0 25
-5 -3 -10 3 -10 14 0 24 10 27 28 9 9 -9 15 -9 24 0 9 9 9 12 -1 12 -7 0 -9 4
-6 10 9 15 -7 35 -30 37 -40 3 -59 10 -63 22 -2 6 0 11 5 10 27 -5 35 1 23 16
-9 11 -10 18 -1 29 9 10 8 16 -4 26 -12 10 -12 15 2 36 15 24 15 24 -18 20
-42 -4 -59 2 -59 22 0 8 3 13 6 9 3 -3 15 4 26 15 15 15 17 22 8 28 -9 6 -9 9
-1 11 7 3 13 11 14 19 2 8 6 20 10 27 4 6 2 15 -5 20 -31 20 -62 33 -77 33 -9
1 -33 7 -54 14 -27 10 -37 11 -34 2 2 -6 23 -18 47 -27 27 -10 37 -18 28 -21
-8 -3 -34 2 -59 12 -24 10 -59 24 -77 30 l-33 13 23 26 c12 14 16 20 8 14 -21
-19 -32 -16 -21 6 6 10 8 21 5 23 -2 3 0 18 7 34 6 16 12 41 14 56 2 15 9 53
14 85 6 32 13 84 15 116 3 32 8 62 11 67 4 6 2 10 -3 10 -10 0 -9 36 1 46 3 4
2 15 -4 25 -5 11 -6 19 -1 19 9 0 8 53 -2 68 -3 5 -1 23 4 41 5 19 5 31 -1 31
-6 0 -6 7 1 19 7 14 6 21 -3 24 -9 3 -9 7 -1 18 6 8 10 23 8 34 -15 89 -28
151 -33 155 -3 3 -7 25 -7 50 -2 52 -11 95 -25 122 -6 11 -8 22 -5 25 3 4 1
12 -5 20 -6 7 -8 13 -4 13 4 0 2 7 -5 15 -7 8 -10 15 -6 15 6 0 -16 64 -37
108 -6 12 -17 22 -26 22 -14 1 -14 2 1 14 16 11 15 15 -10 41 -18 19 -21 27
-9 22 20 -8 20 -8 6 31 -6 18 -16 29 -22 25 -5 -3 -7 -2 -4 4 4 6 0 19 -8 29
-14 19 -14 19 -16 -1 -1 -11 -2 -26 -2 -32 1 -7 -4 -13 -9 -13 -6 0 -8 10 -5
23 4 12 2 29 -3 37 -5 8 -5 21 1 32 6 12 6 18 -1 18 -5 0 -10 -4 -10 -10 0 -5
-5 -10 -11 -10 -5 0 -7 5 -4 10 3 6 1 10 -4 10 -6 0 -11 5 -11 11 0 5 5 7 12
3 7 -4 8 -3 4 4 -4 6 -14 8 -23 5 -11 -4 -14 -3 -9 5 4 7 1 12 -8 12 -10 0
-16 9 -16 25 0 13 -6 28 -13 32 -8 4 -22 22 -32 40 -10 18 -22 30 -26 27 -4
-2 -16 15 -28 39 -12 23 -23 41 -26 40 -17 -9 -25 0 -19 24 6 21 4 25 -8 20
-9 -3 -25 3 -36 13 -11 10 -24 16 -28 12 -5 -4 -2 2 6 12 14 18 13 19 -13 14
-21 -4 -25 -2 -17 7 7 9 5 16 -7 26 -11 9 -14 10 -9 2 19 -32 -19 -8 -64 40
-27 29 -70 63 -95 76 -30 15 -45 29 -45 42 0 17 -4 20 -25 19 -3 0 -16 11 -30
25 -15 17 -35 27 -54 27 -19 1 -31 6 -31 15 0 7 -4 13 -10 13 -5 0 -10 -4 -10
-9 0 -12 -27 -8 -42 7 -7 7 -18 12 -25 12 -7 0 -13 5 -13 10 0 6 -12 15 -26
20 -15 6 -39 19 -54 30 -31 22 -40 25 -40 11 0 -5 20 -21 44 -35 25 -14 52
-34 62 -44 10 -9 20 -17 23 -18 14 -1 81 -47 81 -55 0 -5 3 -8 8 -6 11 3 62
-39 62 -52 0 -6 3 -10 8 -10 22 4 34 -3 28 -16 -3 -8 3 -19 13 -25 25 -13 121
-104 121 -114 0 -5 -11 -1 -24 8 -16 10 -27 12 -31 6 -9 -15 -27 -1 -21 16 5
14 -66 79 -88 79 -6 0 -15 10 -21 23 -5 12 -16 22 -23 22 -8 0 -10 9 -6 28 4
20 3 23 -5 12 -8 -12 -15 -12 -48 5 -21 10 -40 19 -43 19 -3 1 -19 14 -35 29
-17 16 -42 35 -57 43 -16 8 -28 19 -28 24 0 15 -17 12 -35 -6 -15 -15 -17 -15
-36 2 -25 22 -69 25 -70 4 0 -10 -2 -11 -6 -2 -2 6 -10 12 -18 12 -7 0 -18 7
-26 16 -7 8 -22 14 -34 12 -12 -3 -26 1 -33 8 -7 8 -19 11 -27 8 -18 -7 -20
-24 -2 -24 7 0 18 -9 25 -20 7 -11 19 -20 27 -20 8 0 15 -5 15 -11 0 -5 4 -8
9 -4 5 3 13 0 17 -6 5 -8 3 -9 -6 -4 -10 6 -12 4 -7 -7 5 -13 0 -14 -31 -6
-20 5 -44 10 -52 12 -8 2 -21 -2 -29 -8 -12 -9 -13 -8 -7 2 7 11 4 12 -11 3
-11 -6 -24 -7 -28 -3 -3 4 -70 8 -148 9 -78 1 -150 3 -159 4 -29 4 -20 16 15
22 17 3 43 8 57 11 14 3 42 8 63 11 47 7 50 28 2 22 -19 -3 -49 -1 -67 3 l-33
8 42 1 c59 1 66 23 16 50 -21 10 -185 16 -194 6z m169 -40 c-3 -3 -9 2 -12 12
-6 14 -5 15 5 6 7 -7 10 -15 7 -18z m-90 10 c-3 -3 -15 -7 -27 -10 -11 -2 -26
-7 -31 -10 -6 -3 -10 -2 -10 4 0 5 8 12 18 14 25 7 56 8 50 2z m621 -99 c10
-12 8 -13 -8 -9 -12 3 -21 9 -21 14 0 14 16 11 29 -5z m71 -12 c0 -14 -3 -14
-15 -4 -8 7 -15 14 -15 16 0 2 7 4 15 4 8 0 15 -7 15 -16z m-130 -22 c7 2 14
-2 17 -8 2 -7 -10 -11 -34 -9 -49 3 -48 2 -33 20 9 11 16 12 25 5 7 -6 18 -9
25 -8z m-111 -31 c8 -5 9 -11 3 -15 -5 -3 -15 1 -22 9 -14 16 -3 20 19 6z m41
-22 c0 -6 -4 -7 -10 -4 -5 3 -10 11 -10 16 0 6 5 7 10 4 6 -3 10 -11 10 -16z
m-93 -23 c12 2 25 -1 29 -8 4 -7 3 -8 -4 -4 -7 4 -12 2 -12 -5 0 -7 -3 -9 -6
-6 -4 3 -14 2 -23 -2 -9 -5 -27 -5 -40 0 -23 9 -23 10 -5 23 10 8 23 11 29 6
5 -4 20 -6 32 -4z m228 -36 c16 -15 25 -19 25 -10 0 9 7 6 20 -8 12 -12 27
-22 35 -22 8 0 15 -4 15 -8 0 -4 20 -16 45 -26 24 -10 52 -28 62 -39 18 -19
17 -20 -4 -8 -20 10 -72 33 -83 36 -23 6 -62 21 -98 37 -23 10 -47 16 -51 13
-5 -3 -11 -1 -13 4 -1 5 -12 11 -23 13 -37 6 -46 22 -19 34 36 15 60 11 89
-16z m576 -227 c13 -16 12 -17 -3 -4 -17 13 -22 21 -14 21 2 0 10 -8 17 -17z
m-2571 -13 c0 -5 -2 -10 -4 -10 -3 0 -8 5 -11 10 -3 6 -1 10 4 10 6 0 11 -4
11 -10z m-109 -520 c10 0 5 -25 -15 -72 -22 -51 -33 -55 -54 -17 -9 18 -27 43
-38 55 -15 15 -18 26 -11 33 7 7 15 3 26 -11 l17 -20 17 26 c10 14 14 26 10
26 -5 0 -1 5 7 10 11 7 17 4 24 -10 5 -11 13 -20 17 -20z m-231 -44 c0 -3 -4
-8 -10 -11 -5 -3 -10 -1 -10 4 0 6 5 11 10 11 6 0 10 -2 10 -4z m-185 -256 c3
-5 1 -10 -4 -10 -6 0 -11 5 -11 10 0 6 2 10 4 10 3 0 8 -4 11 -10z m645 -610
c0 -5 -4 -10 -10 -10 -5 0 -10 5 -10 10 0 6 5 10 10 10 6 0 10 -4 10 -10z m7
-32 c0 -7 4 -29 7 -49 6 -27 4 -38 -10 -50 -16 -12 -17 -12 -11 4 3 9 2 17 -3
17 -6 0 -10 -5 -10 -11 0 -5 -5 -7 -10 -4 -6 4 -2 18 11 36 11 16 19 36 16 43
-3 8 -3 17 0 20 9 8 10 8 10 -6z m-16 -150 c1 -7 3 -25 5 -40 1 -16 -1 -28 -6
-28 -4 0 -10 18 -12 40 -2 22 0 40 4 40 5 0 9 -6 9 -12z m6 -140 c-3 -8 -6 -5
-6 6 -1 11 2 17 5 13 3 -3 4 -12 1 -19z m-177 -47 c0 -11 4 -21 8 -23 12 -5
64 -129 57 -136 -12 -12 -45 39 -45 70 0 16 -4 27 -10 23 -5 -3 -6 -13 -3 -23
3 -9 3 -14 -1 -10 -4 3 -9 12 -10 20 -2 7 -6 20 -9 28 -7 17 -10 39 -8 58 2
20 21 14 21 -7z m3400 -296 c-7 -9 -15 -13 -17 -11 -7 7 7 26 19 26 6 0 6 -6
-2 -15z m16 -258 c4 -4 -5 -7 -19 -7 -15 0 -27 4 -27 8 0 10 36 9 46 -1z
m-616 -118 c0 -5 -11 -9 -25 -9 -24 0 -32 10 -19 22 8 8 44 -3 44 -13z m230
-40 c0 -4 -7 -6 -15 -3 -8 4 -15 10 -15 15 0 4 7 6 15 3 8 -4 15 -10 15 -15z
m-465 -169 c-3 -5 -12 -10 -18 -10 -7 0 -6 4 3 10 19 12 23 12 15 0z m-85 -24
c0 -8 -7 -16 -15 -20 -12 -4 -13 -2 -2 14 14 24 17 25 17 6z m-60 -41 c-7 -9
-15 -13 -19 -10 -3 3 1 10 9 15 21 14 24 12 10 -5z m-700 -319 c0 -2 -7 -6
-15 -10 -8 -3 -15 -1 -15 4 0 6 7 10 15 10 8 0 15 -2 15 -4z"/>
<path d="M2267 3859 c7 -7 15 -10 18 -7 3 3 -2 9 -12 12 -14 6 -15 5 -6 -5z"/>
<path d="M2345 3840 c3 -5 11 -10 16 -10 6 0 7 5 4 10 -3 6 -11 10 -16 10 -6
0 -7 -4 -4 -10z"/>
<path d="M495 3380 c3 -5 8 -10 11 -10 2 0 4 5 4 10 0 6 -5 10 -11 10 -5 0 -7
-4 -4 -10z"/>
<path d="M3880 1980 c0 -5 5 -10 11 -10 5 0 7 5 4 10 -3 6 -8 10 -11 10 -2 0
-4 -4 -4 -10z"/>
<path d="M3879 1953 c-5 -31 -5 -73 -1 -68 6 6 12 75 6 75 -2 0 -5 -3 -5 -7z"/>
<path d="M4285 1400 c3 -5 8 -10 11 -10 2 0 4 5 4 10 0 6 -5 10 -11 10 -5 0
-7 -4 -4 -10z"/>
<path d="M4316 1381 c-3 -5 1 -11 9 -15 9 -3 15 0 15 9 0 16 -16 20 -24 6z"/>
<path d="M4202 1258 c5 -13 38 -20 38 -8 0 4 -9 10 -21 13 -12 3 -19 1 -17 -5z"/>
<path d="M540 1110 c0 -5 5 -10 11 -10 5 0 7 5 4 10 -3 6 -8 10 -11 10 -2 0
-4 -4 -4 -10z"/>
<path d="M3485 870 c-3 -5 -2 -10 4 -10 5 0 13 5 16 10 3 6 2 10 -4 10 -5 0
-13 -4 -16 -10z"/>
<path d="M2940 540 c-9 -6 -10 -10 -3 -10 6 0 15 5 18 10 8 12 4 12 -15 0z"/>
<path d="M2478 373 c7 -3 16 -2 19 1 4 3 -2 6 -13 5 -11 0 -14 -3 -6 -6z"/>
<path d="M2435 360 c-3 -6 1 -7 9 -4 18 7 21 14 7 14 -6 0 -13 -4 -16 -10z"/>
</g>
</svg>
